<?xml version="1.0" encoding="UTF-8" standalone="no"?>
<!-- Generator: Adobe Illustrator 15.0.0, SVG Export Plug-In . SVG Version: 6.00 Build 0)  -->

<svg
   xmlns:dc="http://purl.org/dc/elements/1.1/"
   xmlns:cc="http://creativecommons.org/ns#"
   xmlns:rdf="http://www.w3.org/1999/02/22-rdf-syntax-ns#"
   xmlns:svg="http://www.w3.org/2000/svg"
   xmlns="http://www.w3.org/2000/svg"
   xmlns:sodipodi="http://sodipodi.sourceforge.net/DTD/sodipodi-0.dtd"
   xmlns:inkscape="http://www.inkscape.org/namespaces/inkscape"
   version="1.1"
   x="0px"
   y="0px"
   width="344px"
   height="191px"
   viewBox="0 0 344 191"
   enable-background="new 0 0 344 191"
   xml:space="preserve"
   id="svg2"
   inkscape:version="0.48.4 r9939"
   sodipodi:docname="opensonora-pcb-layout-v.0.1-typeA.svg"><metadata
   id="metadata1234"><rdf:RDF><cc:Work
       rdf:about=""><dc:format>image/svg+xml</dc:format><dc:type
         rdf:resource="http://purl.org/dc/dcmitype/StillImage" /><dc:title></dc:title></cc:Work></rdf:RDF></metadata><defs
   id="defs1232">
	
	
		
	
		
	
		
	
	
	
	
	
	
	
	
	
	
	
	
	
	
	
	
	
	
	
	
	
	
	
	
		
	
	
	
	
		
	
	
	
	
	
	
	
	
	
		
	
		
	
	
		
	
	
	
	
	
	

	
	
	
	
		
	
	
	
	
	
	
	
	
	
	
	
	
	
	
	
	
	
	
	
	
	
	
</defs><sodipodi:namedview
   pagecolor="#ffffff"
   bordercolor="#666666"
   borderopacity="1"
   objecttolerance="10"
   gridtolerance="10"
   guidetolerance="10"
   inkscape:pageopacity="0"
   inkscape:pageshadow="2"
   inkscape:window-width="1920"
   inkscape:window-height="1005"
   id="namedview1230"
   showgrid="false"
   inkscape:zoom="2.4712042"
   inkscape:cx="183.59084"
   inkscape:cy="98.088055"
   inkscape:window-x="-9"
   inkscape:window-y="-9"
   inkscape:window-maximized="1"
   inkscape:current-layer="svg2" />
<polygon
   id="polygon5"
   points="62.796,109.851 65.376,112.101 65.376,123.761 73.966,123.761 73.966,150.631 218.836,150.631 218.836,115.95 234.476,115.95 234.476,150.631 294.706,150.631 294.706,155.681 52.126,155.681 52.126,127.181 59.336,127.181 63.286,123.221 63.286,117.631 59.336,113.681 52.126,113.681 52.126,88.44 62.796,88.44 "
   transform="matrix(1.24512,0,0,1.24512,-53.091373,-19.503995)" /><rect
   style="fill:none;stroke:#000000;stroke-width:1.24269164;stroke-linejoin:round;stroke-miterlimit:10"
   id="rect7"
   height="158.20613"
   width="317.65497"
   stroke-miterlimit="10"
   y="18.124813"
   x="6.4602556" /><line
   style="fill:none;stroke:#000000;stroke-width:7.47071981;stroke-linecap:round;stroke-miterlimit:10"
   id="line9"
   y2="70.251724"
   x2="311.98154"
   y1="70.251724"
   x1="312.30154"
   stroke-miterlimit="10" /><line
   style="fill:none;stroke:#000000;stroke-width:6.22559977;stroke-linecap:round;stroke-miterlimit:10"
   id="line11"
   y2="70.251724"
   x2="244.59441"
   y1="70.251724"
   x1="297.82703"
   stroke-miterlimit="10" /><g
   id="g13"
   transform="matrix(1.24512,0,0,1.24512,-53.091373,-19.503995)">
		<g
   id="g15">
			<polyline
   style="fill:none;stroke:#000000;stroke-width:2;stroke-miterlimit:10"
   id="polyline17"
   points="71.129,119.35 71.129,45.627      109.271,45.627    "
   stroke-miterlimit="10" />
			<g
   id="g19">
				<circle
   d="m 112.279,45.626999 c 0,1.661272 -1.34672,3.008 -3.008,3.008 -1.66127,0 -3.008,-1.346728 -3.008,-3.008 0,-1.661273 1.34673,-3.008 3.008,-3.008 1.66128,0 3.008,1.346727 3.008,3.008 z"
   sodipodi:ry="3.0079999"
   sodipodi:rx="3.0079999"
   sodipodi:cy="45.626999"
   sodipodi:cx="109.271"
   id="circle21"
   r="3.0079999"
   cy="45.626999"
   cx="109.271" />
			</g>
		</g>
	</g><circle
   d="m 73.963998,126.72 c 0,1.56573 -1.269273,2.835 -2.835,2.835 -1.565727,0 -2.835,-1.26927 -2.835,-2.835 0,-1.56573 1.269273,-2.835 2.835,-2.835 1.565727,0 2.835,1.26927 2.835,2.835 z"
   sodipodi:ry="2.835"
   sodipodi:rx="2.835"
   sodipodi:cy="126.72"
   sodipodi:cx="71.128998"
   id="circle23"
   r="2.835"
   cy="126.72"
   cx="71.128998"
   transform="matrix(1.24512,0,0,1.24512,-53.091373,-19.503995)" /><circle
   d="m 83.296998,126.72 c 0,1.56573 -1.269273,2.835 -2.835,2.835 -1.565727,0 -2.835,-1.26927 -2.835,-2.835 0,-1.56573 1.269273,-2.835 2.835,-2.835 1.565727,0 2.835,1.26927 2.835,2.835 z"
   sodipodi:ry="2.835"
   sodipodi:rx="2.835"
   sodipodi:cy="126.72"
   sodipodi:cx="80.461998"
   id="circle25"
   r="2.835"
   cy="126.72"
   cx="80.461998"
   transform="matrix(1.24512,0,0,1.24512,-53.091373,-19.503995)" /><circle
   d="m 83.296998,119.351 c 0,1.56573 -1.269273,2.835 -2.835,2.835 -1.565727,0 -2.835,-1.26927 -2.835,-2.835 0,-1.56573 1.269273,-2.835 2.835,-2.835 1.565727,0 2.835,1.26927 2.835,2.835 z"
   sodipodi:ry="2.835"
   sodipodi:rx="2.835"
   sodipodi:cy="119.351"
   sodipodi:cx="80.461998"
   id="circle27"
   r="2.835"
   cy="119.351"
   cx="80.461998"
   transform="matrix(1.24512,0,0,1.24512,-53.091373,-19.503995)" /><circle
   d="m 73.963998,126.722 c 0,1.56573 -1.269273,2.835 -2.835,2.835 -1.565727,0 -2.835,-1.26927 -2.835,-2.835 0,-1.56573 1.269273,-2.835 2.835,-2.835 1.565727,0 2.835,1.26927 2.835,2.835 z"
   sodipodi:ry="2.835"
   sodipodi:rx="2.835"
   sodipodi:cy="126.722"
   sodipodi:cx="71.128998"
   id="circle29"
   r="2.835"
   cy="126.722"
   cx="71.128998"
   transform="matrix(1.24512,0,0,1.24512,-53.091373,-19.503995)" /><circle
   d="m 97.922997,91.029999 c 0,1.565727 -1.269272,2.835 -2.835,2.835 -1.565727,0 -2.835,-1.269273 -2.835,-2.835 0,-1.565728 1.269273,-2.835 2.835,-2.835 1.565728,0 2.835,1.269272 2.835,2.835 z"
   sodipodi:ry="2.835"
   sodipodi:rx="2.835"
   sodipodi:cy="91.029999"
   sodipodi:cx="95.087997"
   id="circle31"
   r="2.835"
   cy="91.029999"
   cx="95.087997"
   transform="matrix(1.24512,0,0,1.24512,-53.091373,-19.503995)" /><circle
   d="m 209.436,91.029999 c 0,1.565727 -1.26927,2.835 -2.835,2.835 -1.56573,0 -2.835,-1.269273 -2.835,-2.835 0,-1.565728 1.26927,-2.835 2.835,-2.835 1.56573,0 2.835,1.269272 2.835,2.835 z"
   sodipodi:ry="2.835"
   sodipodi:rx="2.835"
   sodipodi:cy="91.029999"
   sodipodi:cx="206.601"
   id="circle33"
   r="2.835"
   cy="91.029999"
   cx="206.601"
   transform="matrix(1.24512,0,0,1.24512,-53.091373,-19.503995)" /><circle
   d="m 97.570001,141.657 c 0,1.56572 -1.269273,2.835 -2.835,2.835 -1.565728,0 -2.835,-1.26928 -2.835,-2.835 0,-1.56573 1.269272,-2.835 2.835,-2.835 1.565727,0 2.835,1.26927 2.835,2.835 z"
   sodipodi:ry="2.835"
   sodipodi:rx="2.835"
   sodipodi:cy="141.657"
   sodipodi:cx="94.735001"
   id="circle35"
   r="2.835"
   cy="141.657"
   cx="94.735001"
   transform="matrix(1.24512,0,0,1.24512,-53.091373,-19.503995)" /><path
   inkscape:connector-curvature="0"
   id="path37"
   d="m 249.49893,70.251725 c 0,2.364483 -1.61741,4.284458 -3.61333,4.284458 h -21.54182 c -1.99718,0 -3.61334,-1.919975 -3.61334,-4.284458 l 0,0 c 0,-2.366973 1.61741,-4.284458 3.61334,-4.284458 h 21.54182 c 1.99592,0 3.61333,1.91873 3.61333,4.284458 l 0,0 z" /><path
   inkscape:connector-curvature="0"
   id="path39"
   d="m 254.05856,59.549919 h -19.85592 c -3.57723,0 -3.61085,-3.52867 -3.61085,-3.52867 0,-1.947368 1.61741,-3.52867 3.61085,-3.52867 h 19.85592 c 1.99469,0 3.61334,1.581302 3.61334,3.52867 0,0 0,3.52867 -3.61334,3.52867 z" /><path
   inkscape:connector-curvature="0"
   id="path41"
   d="m 281.37152,59.549919 h -14.29025 c -3.57723,0 -3.61333,-3.52867 -3.61333,-3.52867 0,-1.947368 1.61741,-3.52867 3.61333,-3.52867 h 14.29025 c 1.99468,0 3.61333,1.581302 3.61333,3.52867 0,0 0,3.52867 -3.61333,3.52867 z" /><path
   inkscape:connector-curvature="0"
   id="path43"
   d="m 281.37152,87.129327 h -14.29025 c -3.57723,0 -3.61333,-3.52867 -3.61333,-3.52867 0,-1.948613 1.61741,-3.52867 3.61333,-3.52867 h 14.29025 c 1.99468,0 3.61333,1.580057 3.61333,3.52867 0,0 0,3.52867 -3.61333,3.52867 z" /><path
   inkscape:connector-curvature="0"
   id="path45"
   d="m 302.26587,59.549919 h -8.25016 c -3.57723,0 -3.61085,-3.52867 -3.61085,-3.52867 0,-1.947368 1.61741,-3.52867 3.61085,-3.52867 h 8.25016 c 1.99718,0 3.61334,1.581302 3.61334,3.52867 0,0 0,3.52867 -3.61334,3.52867 z" /><path
   inkscape:connector-curvature="0"
   id="path47"
   d="m 297.47714,87.248858 h -3.46143 c -3.57723,0 -3.61085,-3.529915 -3.61085,-3.529915 0,-1.948613 1.61741,-3.52867 3.61085,-3.52867 h 3.46143 c 1.99718,0 3.61334,1.580057 3.61334,3.52867 0.001,0 0.001,3.529915 -3.61334,3.529915 z" /><path
   inkscape:connector-curvature="0"
   id="path49"
   d="m 254.05856,87.248858 h -19.85592 c -3.57723,0 -3.61085,-3.529915 -3.61085,-3.529915 0,-1.948613 1.61741,-3.52867 3.61085,-3.52867 h 19.85592 c 1.99469,0 3.61334,1.580057 3.61334,3.52867 0,0 0,3.529915 -3.61334,3.529915 z" /><g
   id="g51"
   transform="matrix(1.24512,0,0,1.24512,-53.091373,-19.503995)">
		<g
   id="g53">
			<polyline
   style="fill:none;stroke:#000000;stroke-width:2;stroke-miterlimit:10"
   id="polyline55"
   points="240.228,83.194 212.808,83.194      148.332,83.194 131.832,79.825 109.029,79.825    "
   stroke-miterlimit="10" />
			<g
   id="g57">
				<circle
   d="m 112.037,79.824997 c 0,1.661272 -1.34673,3.008 -3.008,3.008 -1.66127,0 -3.008,-1.346728 -3.008,-3.008 0,-1.661273 1.34673,-3.008 3.008,-3.008 1.66127,0 3.008,1.346727 3.008,3.008 z"
   sodipodi:ry="3.0079999"
   sodipodi:rx="3.0079999"
   sodipodi:cy="79.824997"
   sodipodi:cx="109.029"
   id="circle59"
   r="3.0079999"
   cy="79.824997"
   cx="109.029" />
			</g>
		</g>
	</g><g
   id="g61"
   transform="matrix(1.24512,0,0,1.24512,-53.091373,-19.503995)">
		<g
   id="g63">
			<polyline
   style="fill:none;stroke:#000000;stroke-width:2;stroke-miterlimit:10"
   id="polyline65"
   points="240.228,60.301 228.955,60.301      147.832,60.301 131.582,63.677 109.029,63.677    "
   stroke-miterlimit="10" />
			<g
   id="g67">
				<circle
   d="m 112.037,63.676998 c 0,1.661273 -1.34673,3.008 -3.008,3.008 -1.66127,0 -3.008,-1.346727 -3.008,-3.008 0,-1.661272 1.34673,-3.008 3.008,-3.008 1.66127,0 3.008,1.346728 3.008,3.008 z"
   sodipodi:ry="3.0079999"
   sodipodi:rx="3.0079999"
   sodipodi:cy="63.676998"
   sodipodi:cx="109.029"
   id="circle69"
   r="3.0079999"
   cy="63.676998"
   cx="109.029" />
			</g>
		</g>
	</g><polyline
   style="fill:none;stroke:#000000;stroke-width:2;stroke-miterlimit:10"
   id="polyline71"
   points="279.011,60.657 287.207,60.657    287.207,96.044  "
   stroke-miterlimit="10"
   transform="matrix(1.24512,0,0,1.24512,-53.091373,-19.503995)" /><polyline
   style="fill:none;stroke:#000000;stroke-width:2;stroke-miterlimit:10"
   id="polyline73"
   points="277.028,82.787 283.451,82.787    283.451,96.044  "
   stroke-miterlimit="10"
   transform="matrix(1.24512,0,0,1.24512,-53.091373,-19.503995)" /><line
   style="fill:none;stroke:#000000;stroke-width:2.4902401;stroke-miterlimit:10"
   id="line75"
   y2="57.78434"
   x2="292.24393"
   y1="57.78434"
   x1="291.05481"
   stroke-miterlimit="10" /><g
   id="g77"
   transform="matrix(1.24512,0,0,1.24512,-53.091373,-19.503995)">
		<g
   id="g79">
			<line
   style="fill:none;stroke:#000000;stroke-width:2;stroke-linejoin:round"
   id="line81"
   y2="72.120003"
   x2="109.029"
   y1="72.120003"
   x1="220.804" />
			<g
   id="g83">
				<circle
   d="m 112.037,72.120003 c 0,1.661272 -1.34673,3.008 -3.008,3.008 -1.66127,0 -3.008,-1.346728 -3.008,-3.008 0,-1.661273 1.34673,-3.008 3.008,-3.008 1.66127,0 3.008,1.346727 3.008,3.008 z"
   sodipodi:ry="3.0079999"
   sodipodi:rx="3.0079999"
   sodipodi:cy="72.120003"
   sodipodi:cx="109.029"
   id="circle85"
   r="3.0079999"
   cy="72.120003"
   cx="109.029" />
			</g>
		</g>
	</g><g
   id="g87"
   transform="matrix(1.24512,0,0,1.24512,-53.091373,-19.503995)">
		<path
   style="fill:none"
   inkscape:connector-curvature="0"
   id="path89"
   d="M 239.88,72.12" />
	</g><line
   style="fill:none;stroke:#000000;stroke-width:2.4902401;stroke-miterlimit:10"
   id="line91"
   y2="70.104805"
   x2="313.85422"
   y1="100.08231"
   x1="313.85422"
   stroke-miterlimit="10" /><line
   style="fill:none;stroke:#000000;stroke-width:7.47071981;stroke-linecap:round;stroke-miterlimit:10"
   id="line93"
   y2="111.60464"
   x2="35.394329"
   y1="93.601456"
   x1="35.394329"
   stroke-miterlimit="10" /><polyline
   style="fill:none;stroke:#000000;stroke-width:2;stroke-miterlimit:10"
   id="polyline95"
   points="71.129,119.35 80.212,119.35    80.212,91.031 94.953,91.031  "
   stroke-miterlimit="10"
   transform="matrix(1.24512,0,0,1.24512,-53.091373,-19.503995)" /><polyline
   style="fill:none;stroke:#000000;stroke-width:2;stroke-miterlimit:10"
   id="polyline97"
   points="71.129,126.658 71.129,126.658    80.462,126.72 80.462,141.658 94.735,141.658  "
   stroke-miterlimit="10"
   transform="matrix(1.24512,0,0,1.24512,-53.091373,-19.503995)" /><polyline
   style="fill:none;stroke:#000000;stroke-width:2;stroke-linecap:round;stroke-miterlimit:10"
   id="polyline99"
   points="269,141.576    269,117.535 242.501,117.535  "
   stroke-miterlimit="10"
   transform="matrix(1.24512,0,0,1.24512,-53.091373,-19.503995)" /><line
   style="fill:none;stroke:#000000;stroke-width:3.73535991;stroke-linecap:round;stroke-miterlimit:10"
   id="line101"
   y2="146.51283"
   x2="318.36777"
   y1="146.51283"
   x1="314.55646"
   stroke-miterlimit="10" /><circle
   d="m 293.91899,142.282 c 0,1.59831 -1.29568,2.894 -2.894,2.894 -1.59831,0 -2.894,-1.29569 -2.894,-2.894 0,-1.59831 1.29569,-2.894 2.894,-2.894 1.59832,0 2.894,1.29569 2.894,2.894 z"
   sodipodi:ry="2.8940001"
   sodipodi:rx="2.8940001"
   sodipodi:cy="142.282"
   sodipodi:cx="291.02499"
   id="circle103"
   r="2.8940001"
   cy="142.282"
   cx="291.02499"
   transform="matrix(1.24512,0,0,1.24512,-53.091373,-19.503995)" /><circle
   d="m 245.39501,117.534 c 0,1.59831 -1.29569,2.894 -2.894,2.894 -1.59832,0 -2.894,-1.29569 -2.894,-2.894 0,-1.59832 1.29568,-2.894 2.894,-2.894 1.59831,0 2.894,1.29568 2.894,2.894 z"
   sodipodi:ry="2.8940001"
   sodipodi:rx="2.8940001"
   sodipodi:cy="117.534"
   sodipodi:cx="242.50101"
   id="circle105"
   r="2.8940001"
   cy="117.534"
   cx="242.50101"
   transform="matrix(1.24512,0,0,1.24512,-53.091373,-19.503995)" /><circle
   d="m 245.39401,107.06 c 0,1.59776 -1.29524,2.893 -2.893,2.893 -1.59776,0 -2.893,-1.29524 -2.893,-2.893 0,-1.59776 1.29524,-2.893 2.893,-2.893 1.59776,0 2.893,1.29524 2.893,2.893 z"
   sodipodi:ry="2.8929999"
   sodipodi:rx="2.8929999"
   sodipodi:cy="107.06"
   sodipodi:cx="242.50101"
   id="circle107"
   r="2.8929999"
   cy="107.06"
   cx="242.50101"
   transform="matrix(1.24512,0,0,1.24512,-53.091373,-19.503995)" /><circle
   d="m 234.475,107.06 c 0,1.59776 -1.29524,2.893 -2.893,2.893 -1.59776,0 -2.893,-1.29524 -2.893,-2.893 0,-1.59776 1.29524,-2.893 2.893,-2.893 1.59776,0 2.893,1.29524 2.893,2.893 z"
   sodipodi:ry="2.8929999"
   sodipodi:rx="2.8929999"
   sodipodi:cy="107.06"
   sodipodi:cx="231.582"
   id="circle109"
   r="2.8929999"
   cy="107.06"
   cx="231.582"
   transform="matrix(1.24512,0,0,1.24512,-53.091373,-19.503995)" /><circle
   d="m 223.555,107.06 c 0,1.59776 -1.29524,2.893 -2.893,2.893 -1.59776,0 -2.893,-1.29524 -2.893,-2.893 0,-1.59776 1.29524,-2.893 2.893,-2.893 1.59776,0 2.893,1.29524 2.893,2.893 z"
   sodipodi:ry="2.8929999"
   sodipodi:rx="2.8929999"
   sodipodi:cy="107.06"
   sodipodi:cx="220.662"
   id="circle111"
   r="2.8929999"
   cy="107.06"
   cx="220.662"
   transform="matrix(1.24512,0,0,1.24512,-53.091373,-19.503995)" /><circle
   d="m 281.80001,142.282 c 0,1.59831 -1.29569,2.894 -2.894,2.894 -1.59832,0 -2.894,-1.29569 -2.894,-2.894 0,-1.59831 1.29568,-2.894 2.894,-2.894 1.59831,0 2.894,1.29569 2.894,2.894 z"
   sodipodi:ry="2.8940001"
   sodipodi:rx="2.8940001"
   sodipodi:cy="142.282"
   sodipodi:cx="278.90601"
   id="circle113"
   r="2.8940001"
   cy="142.282"
   cx="278.90601"
   transform="matrix(1.24512,0,0,1.24512,-53.091373,-19.503995)" /><circle
   d="m 271.894,142.282 c 0,1.59831 -1.29569,2.894 -2.894,2.894 -1.59831,0 -2.894,-1.29569 -2.894,-2.894 0,-1.59831 1.29569,-2.894 2.894,-2.894 1.59831,0 2.894,1.29569 2.894,2.894 z"
   sodipodi:ry="2.8940001"
   sodipodi:rx="2.8940001"
   sodipodi:cy="142.282"
   sodipodi:cx="269"
   id="circle115"
   r="2.8940001"
   cy="142.282"
   cx="269"
   transform="matrix(1.24512,0,0,1.24512,-53.091373,-19.503995)" /><polyline
   style="fill:none;stroke:#000000;stroke-width:2;stroke-miterlimit:10"
   id="polyline117"
   points="291.025,131.18 291.025,142.283    278.906,142.283  "
   stroke-miterlimit="10"
   transform="matrix(1.24512,0,0,1.24512,-53.091373,-19.503995)" /><line
   style="fill:none;stroke:#000000;stroke-width:4.98048019;stroke-linecap:round;stroke-miterlimit:10"
   id="line119"
   y2="79.662338"
   x2="10.388582"
   y1="79.662338"
   x1="18.166843"
   stroke-miterlimit="10" /><line
   style="fill:none;stroke:#000000;stroke-width:4.98048019;stroke-linecap:round;stroke-miterlimit:10"
   id="line121"
   y2="25.528259"
   x2="10.388582"
   y1="25.528259"
   x1="18.166843"
   stroke-miterlimit="10" /><polyline
   style="fill:none;stroke:#000000;stroke-width:2;stroke-linecap:round;stroke-miterlimit:10"
   id="polyline123"
   points="257.832,91.654    257.832,107.059 218.951,107.059 218.951,91.031 208.019,91.031  "
   stroke-miterlimit="10"
   transform="matrix(1.24512,0,0,1.24512,-53.091373,-19.503995)" /><line
   style="fill:none;stroke:#000000;stroke-width:2.4902401;stroke-linecap:round;stroke-miterlimit:10"
   id="line125"
   y2="170.61711"
   x2="263.36832"
   y1="143.6752"
   x1="263.36832"
   stroke-miterlimit="10" /><g
   id="g127"
   transform="matrix(1.24512,0,0,1.24512,-53.091373,-19.503995)">
		<path
   inkscape:connector-curvature="0"
   id="path129"
   d="m 193.943,35.862 c 0,-1.181 0.355,-1.812 1.346,-1.812 0.991,0 1.342,0.626 1.342,1.812 0,1.221 -0.351,1.772 -1.342,1.772 -1,0 -1.346,-0.581 -1.346,-1.772 z m 2.293,0 c 0,-0.971 -0.24,-1.457 -0.946,-1.457 -0.715,0 -0.946,0.48 -0.946,1.457 0,0.977 0.22,1.417 0.946,1.417 0.72,-0.001 0.946,-0.411 0.946,-1.417 z" />
		<path
   inkscape:connector-curvature="0"
   id="path131"
   d="m 197.774,36.417 v 1.166 h -0.385 V 34.1 h 1.216 c 0.735,0 1.106,0.39 1.106,1.116 0,0.726 -0.371,1.201 -1.106,1.201 h -0.831 z m 0.826,-0.355 c 0.505,0 0.716,-0.36 0.716,-0.846 0,-0.48 -0.21,-0.761 -0.716,-0.761 h -0.826 v 1.606 h 0.826 z" />
		<path
   inkscape:connector-curvature="0"
   id="path133"
   d="m 200.418,34.1 h 2.052 v 0.355 h -1.671 v 1.191 h 1.371 v 0.351 h -1.371 v 1.231 h 1.671 v 0.355 h -2.052 V 34.1 z" />
		<path
   inkscape:connector-curvature="0"
   id="path135"
   d="m 203.239,34.1 h 0.706 l 1.321,3.093 h 0.105 V 34.1 h 0.386 v 3.483 h -0.696 l -1.336,-3.093 h -0.1 v 3.093 H 203.24 V 34.1 z" />
		<path
   inkscape:connector-curvature="0"
   id="path137"
   d="m 208.581,34.48 c 0,0 -0.676,-0.08 -0.966,-0.08 -0.47,0 -0.726,0.195 -0.726,0.565 0,0.426 0.23,0.541 0.821,0.681 0.681,0.17 0.976,0.351 0.976,0.931 0,0.73 -0.351,1.051 -1.096,1.051 -0.42,0 -1.051,-0.095 -1.051,-0.095 l 0.025,-0.34 c 0,0 0.661,0.08 0.996,0.08 0.486,0 0.741,-0.206 0.741,-0.681 0,-0.355 -0.21,-0.486 -0.771,-0.616 -0.71,-0.175 -1.026,-0.371 -1.026,-1.006 0,-0.62 0.4,-0.926 1.096,-0.926 0.426,0 1.001,0.095 1.001,0.095 l -0.02,0.341 z" />
		<path
   inkscape:connector-curvature="0"
   id="path139"
   d="m 209.183,35.862 c 0,-1.181 0.355,-1.812 1.347,-1.812 0.991,0 1.341,0.626 1.341,1.812 0,1.221 -0.35,1.772 -1.341,1.772 -1.001,0 -1.347,-0.581 -1.347,-1.772 z m 2.293,0 c 0,-0.971 -0.24,-1.457 -0.946,-1.457 -0.716,0 -0.946,0.48 -0.946,1.457 0,0.977 0.22,1.417 0.946,1.417 0.72,-0.001 0.946,-0.411 0.946,-1.417 z" />
		<path
   inkscape:connector-curvature="0"
   id="path141"
   d="m 212.628,34.1 h 0.706 l 1.321,3.093 h 0.105 V 34.1 h 0.386 v 3.483 h -0.696 l -1.336,-3.093 h -0.1 v 3.093 h -0.385 V 34.1 z" />
		<path
   inkscape:connector-curvature="0"
   id="path143"
   d="m 215.903,35.862 c 0,-1.181 0.355,-1.812 1.347,-1.812 0.991,0 1.341,0.626 1.341,1.812 0,1.221 -0.35,1.772 -1.341,1.772 -1.001,0 -1.347,-0.581 -1.347,-1.772 z m 2.292,0 c 0,-0.971 -0.24,-1.457 -0.946,-1.457 -0.716,0 -0.946,0.48 -0.946,1.457 0,0.977 0.22,1.417 0.946,1.417 0.721,-0.001 0.946,-0.411 0.946,-1.417 z" />
		<path
   inkscape:connector-curvature="0"
   id="path145"
   d="m 220.55,36.257 h -0.821 v 1.326 h -0.38 V 34.1 h 1.226 c 0.726,0 1.106,0.34 1.106,1.061 0,0.505 -0.19,0.871 -0.635,1.011 l 0.67,1.412 h -0.425 l -0.626,-1.332 -0.115,0.005 z m 0.025,-1.801 h -0.846 v 1.457 h 0.851 c 0.511,0 0.706,-0.335 0.706,-0.751 0,-0.451 -0.246,-0.706 -0.711,-0.706 z" />
		<path
   inkscape:connector-curvature="0"
   id="path147"
   d="m 223.109,34.1 h 0.796 l 0.941,3.483 h -0.385 l -0.266,-0.886 h -1.401 l -0.25,0.886 h -0.386 l 0.951,-3.483 z m -0.225,2.242 h 1.231 l -0.516,-1.902 h -0.2 l -0.515,1.902 z" />
		<path
   inkscape:connector-curvature="0"
   id="path149"
   d="m 227.304,34.1 h 0.796 l 0.941,3.483 h -0.386 l -0.265,-0.886 h -1.401 l -0.25,0.886 h -0.385 l 0.95,-3.483 z m -0.225,2.242 h 1.231 l -0.515,-1.902 h -0.2 l -0.516,1.902 z" />
		<path
   inkscape:connector-curvature="0"
   id="path151"
   d="M 229.678,37.583 V 34.1 h 0.38 v 3.123 h 1.471 v 0.36 h -1.851 z" />
		<path
   inkscape:connector-curvature="0"
   id="path153"
   d="m 232.624,36.417 v 1.166 h -0.385 V 34.1 h 1.216 c 0.735,0 1.106,0.39 1.106,1.116 0,0.726 -0.371,1.201 -1.106,1.201 h -0.831 z m 0.825,-0.355 c 0.505,0 0.716,-0.36 0.716,-0.846 0,-0.48 -0.21,-0.761 -0.716,-0.761 h -0.826 v 1.606 h 0.826 z" />
		<path
   inkscape:connector-curvature="0"
   id="path155"
   d="m 237.355,36.002 h -1.707 v 1.582 h -0.38 V 34.1 h 0.38 v 1.546 h 1.707 V 34.1 h 0.38 v 3.483 h -0.38 v -1.581 z" />
		<path
   inkscape:connector-curvature="0"
   id="path157"
   d="m 239.329,34.1 h 0.796 l 0.941,3.483 h -0.385 l -0.266,-0.886 h -1.401 l -0.25,0.886 h -0.386 l 0.951,-3.483 z m -0.225,2.242 h 1.231 l -0.516,-1.902 h -0.2 l -0.515,1.902 z" />
		<path
   inkscape:connector-curvature="0"
   id="path159"
   d="m 243.263,36.417 v 1.166 h -0.385 V 34.1 h 1.216 c 0.735,0 1.106,0.39 1.106,1.116 0,0.726 -0.371,1.201 -1.106,1.201 h -0.831 z m 0.826,-0.355 c 0.505,0 0.716,-0.36 0.716,-0.846 0,-0.48 -0.21,-0.761 -0.716,-0.761 h -0.826 v 1.606 h 0.826 z" />
		<path
   inkscape:connector-curvature="0"
   id="path161"
   d="m 247.879,37.533 c 0,0 -0.55,0.101 -0.926,0.101 -1.016,0 -1.241,-0.666 -1.241,-1.782 0,-1.146 0.24,-1.802 1.241,-1.802 0.436,0 0.931,0.105 0.931,0.105 l -0.02,0.345 c 0,0 -0.541,-0.085 -0.871,-0.085 -0.756,0 -0.886,0.505 -0.886,1.436 0,0.911 0.125,1.417 0.896,1.417 0.291,0 0.861,-0.08 0.861,-0.08 l 0.015,0.345 z" />
		<path
   inkscape:connector-curvature="0"
   id="path163"
   d="m 249.779,34.1 c 0.63,0 1.031,0.285 1.031,0.861 0,0.445 -0.165,0.701 -0.44,0.831 0.311,0.105 0.545,0.34 0.545,0.811 0,0.706 -0.44,0.981 -1.071,0.981 h -1.266 V 34.1 h 1.201 z m -0.821,0.35 v 1.201 h 0.841 c 0.416,0 0.616,-0.255 0.616,-0.641 0,-0.365 -0.23,-0.561 -0.651,-0.561 h -0.806 z m 0,1.537 v 1.247 h 0.871 c 0.4,0 0.691,-0.19 0.691,-0.651 0,-0.505 -0.471,-0.596 -0.716,-0.596 h -0.846 z" />
		<path
   inkscape:connector-curvature="0"
   id="path165"
   d="m 252.903,35.081 0.585,2.187 h 0.165 l 0.596,-2.187 h 0.385 l -0.701,2.502 h -0.73 l -0.691,-2.502 h 0.391 z" />
		<path
   inkscape:connector-curvature="0"
   id="path167"
   d="m 255.163,37.013 h 0.405 v 0.571 h -0.405 v -0.571 z" />
		<path
   inkscape:connector-curvature="0"
   id="path169"
   d="m 258.53,35.987 c 0,1.287 -0.48,1.647 -1.187,1.647 -0.706,0 -1.191,-0.36 -1.191,-1.652 0,-1.381 0.475,-1.757 1.186,-1.757 0.731,0 1.192,0.385 1.192,1.762 z m -1.967,0 c 0,1.036 0.291,1.292 0.781,1.292 0.496,0 0.776,-0.255 0.776,-1.296 0,-1.091 -0.255,-1.401 -0.776,-1.401 -0.516,-10e-4 -0.781,0.299 -0.781,1.405 z" />
		<path
   inkscape:connector-curvature="0"
   id="path171"
   d="m 259.052,37.013 h 0.405 v 0.571 h -0.405 v -0.571 z" />
		<path
   inkscape:connector-curvature="0"
   id="path173"
   d="m 261.278,34.28 h 0.366 v 3.303 h -0.385 v -2.868 l -0.826,0.565 -0.18,-0.305 1.025,-0.695 z" />
		<path
   inkscape:connector-curvature="0"
   id="path175"
   d="m 264.598,35.417 v 1.176 c 0,0.521 0.06,0.706 0.36,0.706 0.14,0 0.406,-0.025 0.406,-0.025 l 0.02,0.315 c 0,0 -0.29,0.05 -0.465,0.05 -0.496,0 -0.696,-0.245 -0.696,-0.916 v -1.306 h -0.345 v -0.331 h 0.345 v -0.771 h 0.375 v 0.771 h 0.751 v 0.331 h -0.751 z" />
		<path
   inkscape:connector-curvature="0"
   id="path177"
   d="m 266.067,35.081 0.605,2.147 h 0.155 l 0.611,-2.147 h 0.375 l -1.026,3.613 h -0.375 l 0.325,-1.111 h -0.35 l -0.696,-2.502 h 0.376 z" />
		<path
   inkscape:connector-curvature="0"
   id="path179"
   d="m 268.433,35.081 h 0.375 v 0.17 c 0,0 0.335,-0.22 0.706,-0.22 0.61,0 0.896,0.455 0.896,1.271 0,0.941 -0.326,1.332 -1.081,1.332 -0.235,0 -0.451,-0.035 -0.521,-0.05 v 1.111 h -0.375 v -3.614 z m 0.375,0.485 v 1.687 c 0.065,0.015 0.27,0.05 0.5,0.05 0.541,0 0.721,-0.335 0.721,-1.011 0,-0.575 -0.195,-0.926 -0.565,-0.926 -0.331,0 -0.656,0.2 -0.656,0.2 z" />
		<path
   inkscape:connector-curvature="0"
   id="path181"
   d="m 272.849,37.258 0.01,0.295 c 0,0 -0.505,0.08 -0.926,0.08 -0.735,0 -0.996,-0.486 -0.996,-1.287 0,-0.891 0.396,-1.316 1.031,-1.316 0.631,0 0.981,0.38 0.981,1.171 l -0.02,0.285 h -1.606 c 0,0.46 0.15,0.816 0.636,0.816 0.354,10e-4 0.89,-0.044 0.89,-0.044 z m -0.275,-1.066 c 0,-0.596 -0.2,-0.841 -0.605,-0.841 -0.4,0 -0.646,0.26 -0.65,0.841 h 1.255 z" />
		<path
   inkscape:connector-curvature="0"
   id="path183"
   d="m 275.498,34.1 h 0.796 l 0.941,3.483 h -0.385 l -0.266,-0.886 h -1.401 l -0.25,0.886 h -0.386 l 0.951,-3.483 z m -0.226,2.242 h 1.231 l -0.516,-1.902 h -0.2 l -0.515,1.902 z" />
		<path
   inkscape:connector-curvature="0"
   id="path185"
   d="m 168.431,43.583 h -0.375 v -0.15 c 0,0 -0.365,0.2 -0.71,0.2 -0.646,0 -0.886,-0.501 -0.886,-1.292 0,-0.856 0.32,-1.311 1.036,-1.311 0.215,0 0.485,0.05 0.561,0.065 V 39.99 h 0.375 v 3.593 z m -0.376,-0.465 v -1.702 c -0.075,-0.015 -0.34,-0.055 -0.541,-0.055 -0.485,0 -0.681,0.351 -0.681,0.991 0,0.57 0.155,0.946 0.561,0.946 0.301,0 0.661,-0.18 0.661,-0.18 z" />
		<path
   inkscape:connector-curvature="0"
   id="path187"
   d="m 171.056,43.258 0.01,0.295 c 0,0 -0.506,0.08 -0.926,0.08 -0.736,0 -0.996,-0.486 -0.996,-1.287 0,-0.891 0.395,-1.316 1.031,-1.316 0.63,0 0.981,0.38 0.981,1.171 l -0.02,0.285 h -1.606 c 0,0.46 0.15,0.816 0.635,0.816 0.355,10e-4 0.891,-0.044 0.891,-0.044 z m -0.276,-1.066 c 0,-0.596 -0.2,-0.841 -0.605,-0.841 -0.4,0 -0.646,0.26 -0.651,0.841 h 1.256 z" />
		<path
   inkscape:connector-curvature="0"
   id="path189"
   d="m 173.455,41.441 c 0,0 -0.55,-0.08 -0.851,-0.08 -0.291,0 -0.516,0.1 -0.516,0.385 0,0.22 0.11,0.305 0.585,0.385 0.641,0.105 0.876,0.24 0.876,0.721 0,0.586 -0.38,0.781 -0.951,0.781 -0.32,0 -0.866,-0.095 -0.866,-0.095 l 0.02,-0.315 c 0,0 0.556,0.08 0.811,0.08 0.4,0 0.605,-0.095 0.605,-0.436 0,-0.255 -0.115,-0.315 -0.605,-0.4 -0.566,-0.1 -0.856,-0.23 -0.856,-0.706 0,-0.541 0.44,-0.73 0.876,-0.73 0.375,0 0.881,0.095 0.881,0.095 l -0.009,0.315 z" />
		<path
   inkscape:connector-curvature="0"
   id="path191"
   d="m 174.259,40.1 h 0.371 v 0.436 h -0.371 V 40.1 z m 0,0.981 h 0.371 v 2.502 h -0.371 v -2.502 z" />
		<path
   inkscape:connector-curvature="0"
   id="path193"
   d="m 175.289,44.004 c 0,-0.275 0.165,-0.45 0.4,-0.625 -0.095,-0.06 -0.14,-0.185 -0.14,-0.34 0,-0.095 0.17,-0.405 0.17,-0.405 -0.205,-0.115 -0.395,-0.326 -0.395,-0.746 0,-0.556 0.395,-0.855 0.911,-0.855 0.23,0 0.456,0.065 0.456,0.065 l 0.766,-0.015 v 0.315 h -0.465 c 0.09,0.095 0.175,0.25 0.175,0.49 0,0.601 -0.355,0.846 -0.946,0.846 -0.045,0 -0.17,-0.01 -0.22,-0.02 0,0 -0.09,0.22 -0.09,0.285 0,0.2 0.035,0.23 0.57,0.23 0.676,0 0.966,0.14 0.966,0.706 0,0.581 -0.446,0.846 -1.102,0.846 -0.676,-10e-4 -1.056,-0.201 -1.056,-0.777 z m 0.655,-0.476 c -0.18,0.146 -0.28,0.25 -0.28,0.445 0,0.346 0.24,0.476 0.686,0.476 0.465,0 0.715,-0.17 0.715,-0.5 0,-0.345 -0.19,-0.4 -0.615,-0.4 -0.176,-10e-4 -0.506,-0.021 -0.506,-0.021 z m 0.846,-1.641 c 0,-0.365 -0.19,-0.541 -0.561,-0.541 -0.345,0 -0.531,0.206 -0.531,0.541 0,0.346 0.17,0.536 0.521,0.536 0.365,-0.001 0.571,-0.166 0.571,-0.536 z" />
		<path
   inkscape:connector-curvature="0"
   id="path195"
   d="m 178.099,43.583 v -2.502 h 0.375 v 0.165 c 0,0 0.38,-0.215 0.735,-0.215 0.666,0 0.831,0.39 0.831,1.251 v 1.301 h -0.371 v -1.296 c 0,-0.615 -0.075,-0.916 -0.521,-0.916 -0.33,0 -0.675,0.186 -0.675,0.186 v 2.027 h -0.374 z" />
		<path
   inkscape:connector-curvature="0"
   id="path197"
   d="m 182.646,43.258 0.01,0.295 c 0,0 -0.506,0.08 -0.926,0.08 -0.736,0 -0.996,-0.486 -0.996,-1.287 0,-0.891 0.395,-1.316 1.031,-1.316 0.63,0 0.981,0.38 0.981,1.171 l -0.02,0.285 h -1.606 c 0,0.46 0.15,0.816 0.635,0.816 0.355,10e-4 0.891,-0.044 0.891,-0.044 z m -0.276,-1.066 c 0,-0.596 -0.2,-0.841 -0.605,-0.841 -0.4,0 -0.646,0.26 -0.651,0.841 h 1.256 z" />
		<path
   inkscape:connector-curvature="0"
   id="path199"
   d="m 185.26,43.583 h -0.375 v -0.15 c 0,0 -0.365,0.2 -0.71,0.2 -0.646,0 -0.886,-0.501 -0.886,-1.292 0,-0.856 0.32,-1.311 1.036,-1.311 0.215,0 0.486,0.05 0.561,0.065 V 39.99 h 0.375 v 3.593 z m -0.375,-0.465 v -1.702 c -0.075,-0.015 -0.34,-0.055 -0.541,-0.055 -0.485,0 -0.681,0.351 -0.681,0.991 0,0.57 0.155,0.946 0.561,0.946 0.3,0 0.661,-0.18 0.661,-0.18 z" />
		<path
   inkscape:connector-curvature="0"
   id="path201"
   d="m 189.325,42.287 c 0,0.861 -0.28,1.347 -1.171,1.347 -0.3,0 -0.801,-0.05 -0.801,-0.05 V 39.99 h 0.375 v 1.201 c 0,0 0.335,-0.16 0.69,-0.16 0.662,0 0.907,0.49 0.907,1.256 z m -0.38,0.01 c 0,-0.541 -0.13,-0.931 -0.561,-0.931 -0.35,0 -0.655,0.135 -0.655,0.135 v 1.782 c 0,0 0.285,0.02 0.42,0.02 0.676,0 0.796,-0.445 0.796,-1.006 z" />
		<path
   inkscape:connector-curvature="0"
   id="path203"
   d="m 190.104,41.081 0.605,2.147 h 0.155 l 0.611,-2.147 h 0.375 l -1.026,3.613 h -0.375 l 0.325,-1.111 h -0.35 l -0.696,-2.502 h 0.376 z" />
		<path
   inkscape:connector-curvature="0"
   id="path205"
   d="m 193.644,40.1 h 2.057 v 0.36 h -1.677 v 1.361 h 1.376 v 0.35 h -1.376 v 1.412 h -0.38 V 40.1 z" />
		<path
   inkscape:connector-curvature="0"
   id="path207"
   d="m 196.368,41.081 h 0.375 v 0.33 c 0,0 0.375,-0.285 0.831,-0.38 v 0.39 c -0.445,0.09 -0.831,0.335 -0.831,0.335 v 1.827 h -0.375 v -2.502 z" />
		<path
   inkscape:connector-curvature="0"
   id="path209"
   d="m 199.87,43.078 c 0.045,0.155 0.145,0.21 0.3,0.235 l -0.02,0.32 c -0.286,0 -0.451,-0.065 -0.585,-0.195 0,0 -0.406,0.195 -0.856,0.195 -0.411,0 -0.711,-0.306 -0.711,-0.766 0,-0.47 0.28,-0.701 0.766,-0.746 l 0.735,-0.07 v -0.21 c 0,-0.32 -0.15,-0.465 -0.425,-0.465 -0.405,0 -0.936,0.07 -0.936,0.07 l -0.015,-0.32 c 0,0 0.58,-0.095 0.966,-0.095 0.521,0 0.781,0.25 0.781,0.815 v 1.232 z m -1.061,-0.676 c -0.3,0.025 -0.431,0.205 -0.431,0.456 0,0.26 0.155,0.456 0.375,0.456 0.38,0 0.746,-0.15 0.746,-0.15 v -0.816 l -0.69,0.054 z" />
		<path
   inkscape:connector-curvature="0"
   id="path211"
   d="m 200.798,43.583 v -2.502 h 0.375 v 0.165 c 0,0 0.381,-0.215 0.736,-0.215 0.666,0 0.831,0.39 0.831,1.251 v 1.301 h -0.371 v -1.296 c 0,-0.615 -0.075,-0.916 -0.521,-0.916 -0.33,0 -0.676,0.186 -0.676,0.186 v 2.027 h -0.374 z" />
		<path
   inkscape:connector-curvature="0"
   id="path213"
   d="m 205.12,41.096 -0.01,0.32 c 0,0 -0.36,-0.04 -0.55,-0.04 -0.546,0 -0.721,0.28 -0.721,0.911 0,0.681 0.135,1.006 0.721,1.006 0.19,0 0.556,-0.04 0.556,-0.04 l 0.015,0.32 c 0,0 -0.39,0.061 -0.655,0.061 -0.781,0 -1.021,-0.416 -1.021,-1.347 0,-0.855 0.301,-1.256 1.026,-1.256 0.268,0 0.639,0.065 0.639,0.065 z" />
		<path
   inkscape:connector-curvature="0"
   id="path215"
   d="m 207.53,43.258 0.01,0.295 c 0,0 -0.505,0.08 -0.926,0.08 -0.735,0 -0.996,-0.486 -0.996,-1.287 0,-0.891 0.396,-1.316 1.031,-1.316 0.631,0 0.981,0.38 0.981,1.171 l -0.02,0.285 h -1.606 c 0,0.46 0.15,0.816 0.636,0.816 0.354,10e-4 0.89,-0.044 0.89,-0.044 z m -0.276,-1.066 c 0,-0.596 -0.2,-0.841 -0.605,-0.841 -0.4,0 -0.646,0.26 -0.65,0.841 h 1.255 z" />
		<path
   inkscape:connector-curvature="0"
   id="path217"
   d="m 209.929,41.441 c 0,0 -0.55,-0.08 -0.851,-0.08 -0.291,0 -0.516,0.1 -0.516,0.385 0,0.22 0.11,0.305 0.585,0.385 0.641,0.105 0.876,0.24 0.876,0.721 0,0.586 -0.38,0.781 -0.951,0.781 -0.32,0 -0.866,-0.095 -0.866,-0.095 l 0.02,-0.315 c 0,0 0.556,0.08 0.811,0.08 0.4,0 0.605,-0.095 0.605,-0.436 0,-0.255 -0.115,-0.315 -0.605,-0.4 -0.565,-0.1 -0.856,-0.23 -0.856,-0.706 0,-0.541 0.44,-0.73 0.876,-0.73 0.375,0 0.881,0.095 0.881,0.095 l -0.009,0.315 z" />
		<path
   inkscape:connector-curvature="0"
   id="path219"
   d="m 212.285,41.096 -0.01,0.32 c 0,0 -0.36,-0.04 -0.55,-0.04 -0.546,0 -0.721,0.28 -0.721,0.911 0,0.681 0.135,1.006 0.721,1.006 0.19,0 0.556,-0.04 0.556,-0.04 l 0.015,0.32 c 0,0 -0.39,0.061 -0.655,0.061 -0.781,0 -1.021,-0.416 -1.021,-1.347 0,-0.855 0.301,-1.256 1.026,-1.256 0.268,0 0.639,0.065 0.639,0.065 z" />
		<path
   inkscape:connector-curvature="0"
   id="path221"
   d="m 214.88,42.307 c 0,0.816 -0.225,1.327 -1.041,1.327 -0.821,0 -1.051,-0.471 -1.051,-1.336 0,-0.811 0.26,-1.266 1.051,-1.266 0.756,-10e-4 1.041,0.469 1.041,1.275 z m -0.385,0 c 0,-0.616 -0.175,-0.946 -0.656,-0.946 -0.51,0 -0.666,0.3 -0.666,0.936 0,0.65 0.105,1.011 0.666,1.011 0.561,0 0.656,-0.39 0.656,-1.001 z" />
		<path
   inkscape:connector-curvature="0"
   id="path223"
   d="m 216.803,40.1 h 2.057 v 0.36 h -1.676 v 1.361 h 1.376 v 0.35 h -1.376 v 1.412 h -0.38 V 40.1 z" />
		<path
   inkscape:connector-curvature="0"
   id="path225"
   d="m 221.459,42.307 c 0,0.816 -0.225,1.327 -1.041,1.327 -0.821,0 -1.051,-0.471 -1.051,-1.336 0,-0.811 0.26,-1.266 1.051,-1.266 0.756,-10e-4 1.041,0.469 1.041,1.275 z m -0.385,0 c 0,-0.616 -0.175,-0.946 -0.656,-0.946 -0.51,0 -0.666,0.3 -0.666,0.936 0,0.65 0.105,1.011 0.666,1.011 0.561,0 0.656,-0.39 0.656,-1.001 z" />
		<path
   inkscape:connector-curvature="0"
   id="path227"
   d="m 222.168,41.081 h 0.375 v 0.33 c 0,0 0.375,-0.285 0.831,-0.38 v 0.39 c -0.445,0.09 -0.831,0.335 -0.831,0.335 v 1.827 h -0.375 v -2.502 z" />
		<path
   inkscape:connector-curvature="0"
   id="path229"
   d="m 224.378,41.417 v 1.176 c 0,0.521 0.06,0.706 0.36,0.706 0.14,0 0.406,-0.025 0.406,-0.025 l 0.02,0.315 c 0,0 -0.29,0.05 -0.465,0.05 -0.496,0 -0.696,-0.245 -0.696,-0.916 v -1.306 h -0.345 v -0.331 h 0.345 v -0.771 h 0.375 v 0.771 h 0.751 v 0.331 h -0.751 z" />
		<path
   inkscape:connector-curvature="0"
   id="path231"
   d="m 225.732,40.1 h 0.371 v 0.436 h -0.371 V 40.1 z m 0,0.981 h 0.371 v 2.502 h -0.371 v -2.502 z" />
		<path
   inkscape:connector-curvature="0"
   id="path233"
   d="m 226.983,43.583 v -2.502 h 0.375 v 0.165 c 0,0 0.381,-0.215 0.736,-0.215 0.666,0 0.831,0.39 0.831,1.251 v 1.301 h -0.371 v -1.296 c 0,-0.615 -0.075,-0.916 -0.521,-0.916 -0.33,0 -0.676,0.186 -0.676,0.186 v 2.027 h -0.374 z" />
		<path
   inkscape:connector-curvature="0"
   id="path235"
   d="m 231.714,42.307 c 0,0.816 -0.225,1.327 -1.041,1.327 -0.821,0 -1.051,-0.471 -1.051,-1.336 0,-0.811 0.26,-1.266 1.051,-1.266 0.756,-10e-4 1.041,0.469 1.041,1.275 z m -0.385,0 c 0,-0.616 -0.175,-0.946 -0.656,-0.946 -0.51,0 -0.666,0.3 -0.666,0.936 0,0.65 0.105,1.011 0.666,1.011 0.561,0 0.656,-0.39 0.656,-1.001 z" />
		<path
   inkscape:connector-curvature="0"
   id="path237"
   d="m 234.223,39.83 c 0,0 -0.476,1.301 -0.476,2.247 0,0.931 0.476,2.132 0.476,2.132 h -0.396 c 0,0 -0.485,-1.131 -0.485,-2.132 0,-1.001 0.485,-2.247 0.485,-2.247 h 0.396 z" />
		<path
   inkscape:connector-curvature="0"
   id="path239"
   d="m 236.814,40.48 c 0,0 -0.675,-0.08 -0.966,-0.08 -0.47,0 -0.726,0.195 -0.726,0.565 0,0.426 0.23,0.541 0.821,0.681 0.681,0.17 0.976,0.351 0.976,0.931 0,0.73 -0.351,1.051 -1.096,1.051 -0.42,0 -1.051,-0.095 -1.051,-0.095 l 0.025,-0.34 c 0,0 0.661,0.08 0.996,0.08 0.485,0 0.74,-0.206 0.74,-0.681 0,-0.355 -0.21,-0.486 -0.771,-0.616 -0.711,-0.175 -1.026,-0.371 -1.026,-1.006 0,-0.62 0.4,-0.926 1.096,-0.926 0.425,0 1.001,0.095 1.001,0.095 l -0.019,0.341 z" />
		<path
   inkscape:connector-curvature="0"
   id="path241"
   d="m 237.998,41.417 v 1.176 c 0,0.521 0.06,0.706 0.36,0.706 0.14,0 0.406,-0.025 0.406,-0.025 l 0.02,0.315 c 0,0 -0.29,0.05 -0.465,0.05 -0.496,0 -0.696,-0.245 -0.696,-0.916 v -1.306 h -0.345 v -0.331 h 0.345 v -0.771 h 0.375 v 0.771 h 0.751 v 0.331 h -0.751 z" />
		<path
   inkscape:connector-curvature="0"
   id="path243"
   d="m 241.294,41.081 v 2.502 h -0.37 v -0.16 c 0,0 -0.38,0.21 -0.701,0.21 -0.661,0 -0.836,-0.351 -0.836,-1.247 V 41.08 h 0.371 v 1.301 c 0,0.661 0.08,0.921 0.521,0.921 0.3,0 0.646,-0.19 0.646,-0.19 V 41.08 h 0.369 z" />
		<path
   inkscape:connector-curvature="0"
   id="path245"
   d="m 244.004,43.583 h -0.375 v -0.15 c 0,0 -0.365,0.2 -0.71,0.2 -0.646,0 -0.886,-0.501 -0.886,-1.292 0,-0.856 0.32,-1.311 1.036,-1.311 0.215,0 0.486,0.05 0.561,0.065 V 39.99 h 0.375 v 3.593 z m -0.375,-0.465 v -1.702 c -0.075,-0.015 -0.34,-0.055 -0.541,-0.055 -0.485,0 -0.681,0.351 -0.681,0.991 0,0.57 0.155,0.946 0.561,0.946 0.301,0 0.661,-0.18 0.661,-0.18 z" />
		<path
   inkscape:connector-curvature="0"
   id="path247"
   d="m 244.852,40.1 h 0.371 v 0.436 h -0.371 V 40.1 z m 0,0.981 h 0.371 v 2.502 h -0.371 v -2.502 z" />
		<path
   inkscape:connector-curvature="0"
   id="path249"
   d="m 247.994,42.307 c 0,0.816 -0.225,1.327 -1.041,1.327 -0.821,0 -1.051,-0.471 -1.051,-1.336 0,-0.811 0.26,-1.266 1.051,-1.266 0.756,-10e-4 1.041,0.469 1.041,1.275 z m -0.385,0 c 0,-0.616 -0.175,-0.946 -0.656,-0.946 -0.51,0 -0.666,0.3 -0.666,0.936 0,0.65 0.105,1.011 0.666,1.011 0.561,0 0.656,-0.39 0.656,-1.001 z" />
		<path
   inkscape:connector-curvature="0"
   id="path251"
   d="m 251.794,40.48 c 0,0 -0.676,-0.08 -0.966,-0.08 -0.47,0 -0.726,0.195 -0.726,0.565 0,0.426 0.23,0.541 0.821,0.681 0.681,0.17 0.976,0.351 0.976,0.931 0,0.73 -0.351,1.051 -1.096,1.051 -0.42,0 -1.051,-0.095 -1.051,-0.095 l 0.025,-0.34 c 0,0 0.661,0.08 0.996,0.08 0.486,0 0.741,-0.206 0.741,-0.681 0,-0.355 -0.21,-0.486 -0.771,-0.616 -0.71,-0.175 -1.026,-0.371 -1.026,-1.006 0,-0.62 0.4,-0.926 1.096,-0.926 0.426,0 1.001,0.095 1.001,0.095 l -0.02,0.341 z" />
		<path
   inkscape:connector-curvature="0"
   id="path253"
   d="m 253.708,43.263 c 0.541,0 0.831,-0.215 0.831,-0.731 V 40.1 h 0.38 v 2.432 c 0,0.761 -0.4,1.096 -1.211,1.096 -0.781,0 -1.181,-0.335 -1.181,-1.096 V 40.1 h 0.38 v 2.432 c 10e-4,0.511 0.286,0.731 0.801,0.731 z" />
		<path
   inkscape:connector-curvature="0"
   id="path255"
   d="m 256.193,42.417 v 1.166 h -0.385 V 40.1 h 1.216 c 0.735,0 1.106,0.39 1.106,1.116 0,0.726 -0.371,1.201 -1.106,1.201 h -0.831 z m 0.826,-0.355 c 0.505,0 0.716,-0.36 0.716,-0.846 0,-0.48 -0.21,-0.761 -0.716,-0.761 h -0.826 v 1.606 h 0.826 z" />
		<path
   inkscape:connector-curvature="0"
   id="path257"
   d="m 258.837,40.1 h 2.052 v 0.355 h -1.671 v 1.191 h 1.371 v 0.351 h -1.371 v 1.231 h 1.671 v 0.355 h -2.052 V 40.1 z" />
		<path
   inkscape:connector-curvature="0"
   id="path259"
   d="m 262.858,42.257 h -0.821 v 1.326 h -0.38 V 40.1 h 1.226 c 0.726,0 1.106,0.34 1.106,1.061 0,0.505 -0.19,0.871 -0.635,1.011 l 0.67,1.412 h -0.425 l -0.626,-1.332 -0.115,0.005 z m 0.025,-1.801 h -0.846 v 1.457 h 0.851 c 0.511,0 0.706,-0.335 0.706,-0.751 0,-0.451 -0.245,-0.706 -0.711,-0.706 z" />
		<path
   inkscape:connector-curvature="0"
   id="path261"
   d="m 264.772,40.1 h 2.057 v 0.36 h -1.677 v 1.361 h 1.376 v 0.35 h -1.376 v 1.412 h -0.38 V 40.1 z" />
		<path
   inkscape:connector-curvature="0"
   id="path263"
   d="M 267.537,43.583 V 40.1 h 0.38 v 3.123 h 1.471 v 0.36 h -1.851 z" />
		<path
   inkscape:connector-curvature="0"
   id="path265"
   d="m 271.218,43.263 c 0.541,0 0.831,-0.215 0.831,-0.731 V 40.1 h 0.38 v 2.432 c 0,0.761 -0.4,1.096 -1.211,1.096 -0.781,0 -1.181,-0.335 -1.181,-1.096 V 40.1 h 0.38 v 2.432 c 0,0.511 0.286,0.731 0.801,0.731 z" />
		<path
   inkscape:connector-curvature="0"
   id="path267"
   d="m 273.127,41.862 c 0,-1.181 0.355,-1.812 1.346,-1.812 0.991,0 1.342,0.626 1.342,1.812 0,1.221 -0.351,1.772 -1.342,1.772 -1.001,0 -1.346,-0.581 -1.346,-1.772 z m 2.292,0 c 0,-0.971 -0.24,-1.457 -0.946,-1.457 -0.715,0 -0.946,0.48 -0.946,1.457 0,0.977 0.22,1.417 0.946,1.417 0.721,-0.001 0.946,-0.411 0.946,-1.417 z" />
		<path
   inkscape:connector-curvature="0"
   id="path269"
   d="m 276.257,44.184 c 0,0 0.476,-1.301 0.476,-2.247 0,-0.931 -0.476,-2.132 -0.476,-2.132 h 0.396 c 0,0 0.485,1.131 0.485,2.132 0,1.001 -0.485,2.247 -0.485,2.247 h -0.396 z" />
		<path
   inkscape:connector-curvature="0"
   id="path271"
   d="m 216.183,45.99 h 0.37 v 3.593 h -0.37 V 45.99 z" />
		<path
   inkscape:connector-curvature="0"
   id="path273"
   d="m 217.378,46.1 h 0.371 v 0.436 h -0.371 V 46.1 z m 0,0.981 h 0.371 v 2.502 h -0.371 v -2.502 z" />
		<path
   inkscape:connector-curvature="0"
   id="path275"
   d="m 220.11,47.096 -0.01,0.32 c 0,0 -0.36,-0.04 -0.55,-0.04 -0.546,0 -0.721,0.28 -0.721,0.911 0,0.681 0.135,1.006 0.721,1.006 0.19,0 0.556,-0.04 0.556,-0.04 l 0.015,0.32 c 0,0 -0.39,0.061 -0.655,0.061 -0.781,0 -1.021,-0.416 -1.021,-1.347 0,-0.855 0.301,-1.256 1.026,-1.256 0.268,0 0.639,0.065 0.639,0.065 z" />
		<path
   inkscape:connector-curvature="0"
   id="path277"
   d="m 222.52,49.258 0.01,0.295 c 0,0 -0.506,0.08 -0.926,0.08 -0.736,0 -0.996,-0.486 -0.996,-1.287 0,-0.891 0.395,-1.316 1.031,-1.316 0.63,0 0.981,0.38 0.981,1.171 l -0.02,0.285 h -1.606 c 0,0.46 0.15,0.816 0.635,0.816 0.355,10e-4 0.891,-0.044 0.891,-0.044 z m -0.276,-1.066 c 0,-0.596 -0.2,-0.841 -0.605,-0.841 -0.4,0 -0.646,0.26 -0.651,0.841 h 1.256 z" />
		<path
   inkscape:connector-curvature="0"
   id="path279"
   d="m 223.348,49.583 v -2.502 h 0.375 v 0.165 c 0,0 0.381,-0.215 0.736,-0.215 0.666,0 0.831,0.39 0.831,1.251 v 1.301 h -0.371 v -1.296 c 0,-0.615 -0.075,-0.916 -0.521,-0.916 -0.33,0 -0.676,0.186 -0.676,0.186 v 2.027 h -0.374 z" />
		<path
   inkscape:connector-curvature="0"
   id="path281"
   d="m 227.759,47.441 c 0,0 -0.55,-0.08 -0.851,-0.08 -0.291,0 -0.516,0.1 -0.516,0.385 0,0.22 0.11,0.305 0.585,0.385 0.641,0.105 0.876,0.24 0.876,0.721 0,0.586 -0.38,0.781 -0.951,0.781 -0.32,0 -0.866,-0.095 -0.866,-0.095 l 0.02,-0.315 c 0,0 0.556,0.08 0.811,0.08 0.4,0 0.605,-0.095 0.605,-0.436 0,-0.255 -0.115,-0.315 -0.605,-0.4 -0.565,-0.1 -0.856,-0.23 -0.856,-0.706 0,-0.541 0.44,-0.73 0.876,-0.73 0.375,0 0.881,0.095 0.881,0.095 l -0.009,0.315 z" />
		<path
   inkscape:connector-curvature="0"
   id="path283"
   d="m 230.34,49.258 0.01,0.295 c 0,0 -0.506,0.08 -0.926,0.08 -0.736,0 -0.996,-0.486 -0.996,-1.287 0,-0.891 0.395,-1.316 1.031,-1.316 0.63,0 0.981,0.38 0.981,1.171 l -0.02,0.285 h -1.606 c 0,0.46 0.15,0.816 0.635,0.816 0.355,10e-4 0.891,-0.044 0.891,-0.044 z m -0.276,-1.066 c 0,-0.596 -0.2,-0.841 -0.605,-0.841 -0.4,0 -0.646,0.26 -0.651,0.841 h 1.256 z" />
		<path
   inkscape:connector-curvature="0"
   id="path285"
   d="m 232.955,49.583 h -0.375 v -0.15 c 0,0 -0.365,0.2 -0.71,0.2 -0.646,0 -0.886,-0.501 -0.886,-1.292 0,-0.856 0.32,-1.311 1.036,-1.311 0.215,0 0.486,0.05 0.561,0.065 V 45.99 h 0.375 v 3.593 z m -0.376,-0.465 v -1.702 c -0.075,-0.015 -0.34,-0.055 -0.541,-0.055 -0.485,0 -0.681,0.351 -0.681,0.991 0,0.57 0.155,0.946 0.561,0.946 0.301,0 0.661,-0.18 0.661,-0.18 z" />
		<path
   inkscape:connector-curvature="0"
   id="path287"
   d="m 236.919,47.081 v 2.502 h -0.37 v -0.16 c 0,0 -0.38,0.21 -0.701,0.21 -0.661,0 -0.836,-0.351 -0.836,-1.247 V 47.08 h 0.371 v 1.301 c 0,0.661 0.08,0.921 0.521,0.921 0.3,0 0.646,-0.19 0.646,-0.19 V 47.08 h 0.369 z" />
		<path
   inkscape:connector-curvature="0"
   id="path289"
   d="m 237.843,49.583 v -2.502 h 0.375 v 0.165 c 0,0 0.38,-0.215 0.735,-0.215 0.666,0 0.831,0.39 0.831,1.251 v 1.301 h -0.371 v -1.296 c 0,-0.615 -0.075,-0.916 -0.521,-0.916 -0.33,0 -0.675,0.186 -0.675,0.186 v 2.027 h -0.374 z" />
		<path
   inkscape:connector-curvature="0"
   id="path291"
   d="m 242.469,49.583 h -0.375 v -0.15 c 0,0 -0.365,0.2 -0.71,0.2 -0.646,0 -0.886,-0.501 -0.886,-1.292 0,-0.856 0.32,-1.311 1.036,-1.311 0.215,0 0.486,0.05 0.561,0.065 V 45.99 h 0.375 v 3.593 z m -0.375,-0.465 v -1.702 c -0.075,-0.015 -0.34,-0.055 -0.541,-0.055 -0.485,0 -0.681,0.351 -0.681,0.991 0,0.57 0.155,0.946 0.561,0.946 0.3,0 0.661,-0.18 0.661,-0.18 z" />
		<path
   inkscape:connector-curvature="0"
   id="path293"
   d="m 245.094,49.258 0.01,0.295 c 0,0 -0.505,0.08 -0.926,0.08 -0.735,0 -0.996,-0.486 -0.996,-1.287 0,-0.891 0.396,-1.316 1.031,-1.316 0.631,0 0.981,0.38 0.981,1.171 l -0.02,0.285 h -1.606 c 0,0.46 0.15,0.816 0.636,0.816 0.355,10e-4 0.89,-0.044 0.89,-0.044 z m -0.275,-1.066 c 0,-0.596 -0.2,-0.841 -0.605,-0.841 -0.4,0 -0.646,0.26 -0.65,0.841 h 1.255 z" />
		<path
   inkscape:connector-curvature="0"
   id="path295"
   d="m 245.883,47.081 h 0.375 v 0.33 c 0,0 0.375,-0.285 0.831,-0.38 v 0.39 c -0.445,0.09 -0.831,0.335 -0.831,0.335 v 1.827 h -0.375 v -2.502 z" />
		<path
   inkscape:connector-curvature="0"
   id="path297"
   d="m 250.849,49.533 c 0,0 -0.55,0.101 -0.926,0.101 -1.016,0 -1.241,-0.666 -1.241,-1.782 0,-1.146 0.24,-1.802 1.241,-1.802 0.436,0 0.931,0.105 0.931,0.105 l -0.02,0.345 c 0,0 -0.541,-0.085 -0.871,-0.085 -0.756,0 -0.886,0.505 -0.886,1.436 0,0.911 0.125,1.417 0.896,1.417 0.291,0 0.861,-0.08 0.861,-0.08 l 0.015,0.345 z" />
		<path
   inkscape:connector-curvature="0"
   id="path299"
   d="m 253.519,49.533 c 0,0 -0.55,0.101 -0.926,0.101 -1.016,0 -1.241,-0.666 -1.241,-1.782 0,-1.146 0.24,-1.802 1.241,-1.802 0.436,0 0.931,0.105 0.931,0.105 l -0.02,0.345 c 0,0 -0.541,-0.085 -0.871,-0.085 -0.756,0 -0.886,0.505 -0.886,1.436 0,0.911 0.125,1.417 0.896,1.417 0.291,0 0.861,-0.08 0.861,-0.08 l 0.015,0.345 z" />
		<path
   inkscape:connector-curvature="0"
   id="path301"
   d="m 254.092,48.052 h 1.501 v 0.355 h -1.501 v -0.355 z" />
		<path
   inkscape:connector-curvature="0"
   id="path303"
   d="m 257.619,46.1 c 0.63,0 1.031,0.285 1.031,0.861 0,0.445 -0.165,0.701 -0.44,0.831 0.311,0.105 0.545,0.34 0.545,0.811 0,0.706 -0.44,0.981 -1.071,0.981 h -1.266 V 46.1 h 1.201 z m -0.821,0.35 v 1.201 h 0.841 c 0.416,0 0.616,-0.255 0.616,-0.641 0,-0.365 -0.23,-0.561 -0.651,-0.561 h -0.806 z m 0,1.537 v 1.247 h 0.871 c 0.4,0 0.691,-0.19 0.691,-0.651 0,-0.505 -0.471,-0.596 -0.716,-0.596 h -0.846 z" />
		<path
   inkscape:connector-curvature="0"
   id="path305"
   d="m 260.608,49.583 h -0.38 v -1.497 l -1.076,-1.987 h 0.431 l 0.835,1.577 0.826,-1.577 h 0.431 l -1.066,1.987 v 1.497 z" />
		<path
   inkscape:connector-curvature="0"
   id="path307"
   d="m 262.142,48.052 h 1.501 v 0.355 h -1.501 v -0.355 z" />
		<path
   inkscape:connector-curvature="0"
   id="path309"
   d="m 266.344,46.48 c 0,0 -0.676,-0.08 -0.966,-0.08 -0.47,0 -0.726,0.195 -0.726,0.565 0,0.426 0.23,0.541 0.821,0.681 0.681,0.17 0.976,0.351 0.976,0.931 0,0.73 -0.351,1.051 -1.096,1.051 -0.42,0 -1.051,-0.095 -1.051,-0.095 l 0.025,-0.34 c 0,0 0.661,0.08 0.996,0.08 0.486,0 0.741,-0.206 0.741,-0.681 0,-0.355 -0.21,-0.486 -0.771,-0.616 -0.71,-0.175 -1.026,-0.371 -1.026,-1.006 0,-0.62 0.4,-0.926 1.096,-0.926 0.426,0 1.001,0.095 1.001,0.095 l -0.02,0.341 z" />
		<path
   inkscape:connector-curvature="0"
   id="path311"
   d="m 267.783,46.1 h 0.796 l 0.941,3.483 h -0.385 l -0.266,-0.886 h -1.401 l -0.25,0.886 h -0.386 l 0.951,-3.483 z m -0.225,2.242 h 1.231 l -0.516,-1.902 h -0.2 l -0.515,1.902 z" />
		<path
   inkscape:connector-curvature="0"
   id="path313"
   d="m 272.558,48.973 h -1.546 v -0.31 l 0.981,-2.382 h 0.415 l -0.956,2.332 h 1.106 v -1.061 h 0.385 v 1.061 h 0.4 v 0.36 h -0.4 v 0.631 h -0.385 v -0.631 z" />
		<path
   inkscape:connector-curvature="0"
   id="path315"
   d="m 273.892,49.013 h 0.406 v 0.571 h -0.406 v -0.571 z" />
		<path
   inkscape:connector-curvature="0"
   id="path317"
   d="m 277.259,47.987 c 0,1.287 -0.48,1.647 -1.187,1.647 -0.706,0 -1.191,-0.36 -1.191,-1.652 0,-1.381 0.475,-1.757 1.186,-1.757 0.731,0 1.192,0.385 1.192,1.762 z m -1.967,0 c 0,1.036 0.291,1.292 0.781,1.292 0.496,0 0.776,-0.255 0.776,-1.296 0,-1.091 -0.255,-1.401 -0.776,-1.401 -0.516,-10e-4 -0.781,0.299 -0.781,1.405 z" />
	</g><circle
   d="m 73.963998,119.351 c 0,1.56573 -1.269273,2.835 -2.835,2.835 -1.565727,0 -2.835,-1.26927 -2.835,-2.835 0,-1.56573 1.269273,-2.835 2.835,-2.835 1.565727,0 2.835,1.26927 2.835,2.835 z"
   sodipodi:ry="2.835"
   sodipodi:rx="2.835"
   sodipodi:cy="119.351"
   sodipodi:cx="71.128998"
   id="circle319"
   r="2.835"
   cy="119.351"
   cx="71.128998"
   transform="matrix(1.24512,0,0,1.24512,-53.091373,-19.503995)" /><circle
   d="m 72.154997,126.721 c 0,0.73509 -0.595909,1.331 -1.331,1.331 -0.73509,0 -1.330999,-0.59591 -1.330999,-1.331 0,-0.73509 0.595909,-1.331 1.330999,-1.331 0.735091,0 1.331,0.59591 1.331,1.331 z"
   style="fill:#ffffff"
   sodipodi:ry="1.331"
   sodipodi:rx="1.331"
   sodipodi:cy="126.721"
   sodipodi:cx="70.823997"
   id="circle321"
   r="1.331"
   cy="126.721"
   cx="70.823997"
   transform="matrix(1.24512,0,0,1.24512,-53.091373,-19.503995)" /><circle
   d="m 60.787999,120.428 c 0,2.34832 -1.903685,4.252 -4.252,4.252 -2.348314,0 -4.252,-1.90368 -4.252,-4.252 0,-2.34831 1.903686,-4.252 4.252,-4.252 2.348315,0 4.252,1.90369 4.252,4.252 z"
   style="fill:#ffffff;stroke:#000000;stroke-miterlimit:10"
   sodipodi:ry="4.2519999"
   sodipodi:rx="4.2519999"
   sodipodi:cy="120.428"
   sodipodi:cx="56.535999"
   id="circle323"
   r="4.2519999"
   cy="120.428"
   cx="56.535999"
   stroke-miterlimit="10"
   transform="matrix(1.24512,0,0,1.24512,-53.091373,-19.503995)" /><circle
   d="m 298.69499,38.226002 c 0,2.348314 -1.90368,4.252 -4.252,4.252 -2.34831,0 -4.252,-1.903686 -4.252,-4.252 0,-2.348315 1.90369,-4.252 4.252,-4.252 2.34832,0 4.252,1.903685 4.252,4.252 z"
   style="fill:#ffffff;stroke:#000000;stroke-miterlimit:10"
   sodipodi:ry="4.2519999"
   sodipodi:rx="4.2519999"
   sodipodi:cy="38.226002"
   sodipodi:cx="294.44299"
   id="circle325"
   r="4.2519999"
   cy="38.226002"
   cx="294.44299"
   stroke-miterlimit="10"
   transform="matrix(1.24512,0,0,1.24512,-53.091373,-19.503995)" /><circle
   d="m 128.617,38.226002 c 0,2.348314 -1.90369,4.252 -4.252,4.252 -2.34832,0 -4.252,-1.903686 -4.252,-4.252 0,-2.348315 1.90368,-4.252 4.252,-4.252 2.34831,0 4.252,1.903685 4.252,4.252 z"
   style="fill:#ffffff;stroke:#000000;stroke-miterlimit:10"
   sodipodi:ry="4.2519999"
   sodipodi:rx="4.2519999"
   sodipodi:cy="38.226002"
   sodipodi:cx="124.365"
   id="circle327"
   r="4.2519999"
   cy="38.226002"
   cx="124.365"
   stroke-miterlimit="10"
   transform="matrix(1.24512,0,0,1.24512,-53.091373,-19.503995)" />

</svg>